P1
# Created by GIMP version 2.10.38 PNM plug-in
52 70
0000000000000000000000000000000000000000000000000000000000000000000000
0000000000000000000000000000000000000000000000000000000000000000000000
0000000000000000000000000000000000000000000000000000000000000000000000
0000000000000000000101101101000000000000000000000000000000000000000011
1111111111111100000000000000000000000000000000011111111111111111111110
0000000000000000000000000000111111111111111111111111100000000000000000
0000000011111111111111111111111111110000000000000000000000011111111111
1111111111111111111000000000000000000000111111111111111111111111111111
1100000000000000000001111111111111111111111111111111111000000000000000
0011111111111111111111111111111111111100000000000000011111111111111111
1111111111111111111110000000000000011111111111111111111111111111111111
1110000000000000111111111111111111111111111111111111111100000000000011
1111111111111111111111111111111111111100000000000111111111111111111111
1111111111111111111110000000000111111111111111111111111111111111111111
1110000000000111111111111111111111111111111111111111111100000000111111
1111111111111000000111111111111111111100000000111111111111111110000000
0001111111111111111100000000111111111111111100000000000011111111111111
1110000001111111111111111100000000000011111111111111111000000111111111
1111111000000000000001111111111111111000000111111111111111100000000000
0001111111111111111000000111111111111111100000000000000111111111111111
1000000111111111111111000000000000000011111111111111100000011111111111
1111100000000000000011111111111111110000011111111111111100000000000000
0011111111111111110000111111111111111100000000000000001111111111111110
0000111111111111111100000000000000001111111111111111000001111111111111
1100000000000000001111111111111111000011111111111111110000000000000000
1111111111111111000011111111111111110000000000000000111111111111111100
0011111111111111110000000000000000111111111111111100000111111111111111
0000000000000000111111111111111100001111111111111111000000000000000011
1111111111111100000111111111111111000000000000000011111111111111110000
1111111111111111000000000000000011111111111111110000011111111111111100
0000000000000011111111111111100000011111111111111100000000000000001111
1111111111110000111111111111111100000000000000001111111111111110000001
1111111111111110000000000000001111111111111110000001111111111111111000
0000000000011111111111111110000001111111111111111000000000000001111111
1111111110000001111111111111111000000000000001111111111111111000000011
1111111111111100000000000011111111111111111000000011111111111111110000
0000000011111111111111110000000011111111111111111000000000011111111111
1111110000000011111111111111111110000001111111111111111111000000000111
1111111111111111101111111111111111111111000000000111111111111111111111
1111111111111111111110000000000111111111111111111111111111111111111111
1110000000000011111111111111111111111111111111111111110000000000001111
1111111111111111111111111111111111110000000000000111111111111111111111
1111111111111111100000000000000111111111111111111111111111111111111110
0000000000000011111111111111111111111111111111111100000000000000000111
1111111111111111111111111111111000000000000000000011111111111111111111
1111111111110000000000000000000001111111111111111111111111111111000000
0000000000000000111111111111111111111111111100000000000000000000000001
1111111111111111111111111000000000000000000000000000011111111111111111
1111100000000000000000000000000000000011111111111111110000000000000000
0000000000000000000000010111011010000000000000000000000000000000000000
0000000000000000000000000000000000000000000000000000000000000000000000
0000000000000000000000000000000000000000000000000000000000000000000000