P1
# Created by GIMP version 2.10.38 PNM plug-in
52 70
0000000000000000000000000000000000000000000000000000000000000000000000
0000000000000000000000000000000000000000000000000000000000000000000000
0000000000000000000000000000000000000011111111111000000000000000000000
0000000000000000111111111111111111000000000000000000000000000000001111
1111111111111111111000000000000000000000000000111111111111111111111111
1100000000000000000000000000111111111111111111111111111100000000000000
0000000011111111111111111111111111111100000000000000000000011111111111
1111111111111111111110000000000000000000111111111111111111111111111111
1111000000000000000000111111111111111111111111111111111110000000000000
0001111111111111111111111111111111111110000000000000001111111111111111
1111111111111111111111000000000000001111111111111111111111111111111111
1111000000000000011111111111111111111111111111111111111100000000000001
1111111111111111111111111111111111111110000000000001111111111111111100
0001111111111111111110000000000001111111111111111000000011111111111111
1110000000000011111111111111110000000011111111111111111000000000001111
1111111111110000000001111111111111111000000000001111111111111110000000
0001111111111111111000000000001111111111111110000000000111111111111111
1000000000001111111111111110000000000111111111111111100000000000111111
1111111110000000000111111111111111100000000000000000000000000000000000
0111111111111111100000000000000000000000000000000000111111111111111100
0000000000000000000000000000000000111111111111111100000000000000000000
0000000000000001111111111111111100000000000000000000000000000000000111
1111111111111100000000000000000000000000000000001111111111111111100000
0000000000000000000000000000001111111111111111100000000000000000000000
0000000000011111111111111111000000000000000000000000000000000011111111
1111111111000000000000000000000000000000000011111111111111111000000000
0000000000000000000000000111111111111111111000000000000000000000000000
0000001111111111111111110000000000000000000000000000000001111111111111
1111110000000000000000000000000000000011111111111111111110000000000000
0000000000000000000111111111111111111100000000000000000000000000000000
1111111111111111111000000000000000000000000000000001111111111111111111
1000000000000000000000000000000011111111111111111110000000000000000000
0000000000000111111111111111111110000000000000000000000000000000111111
1111111111111100000000000000000000000000000011111111111111111111000000
0000000000000000000000000111111111111111111110000000000000000000000000
0000001111111111111111111110000000000000000000000000000001111111111111
1111111000000000000000000000000000000011111111111111111111000000000000
0000000000000000001111111111111111111100000000000000000000000000000001
1111111111111111111100100100100100100100000000000011111111111111111111
1111111111111111111111000000000011111111111111111111111111111111111111
1111000000000011111111111111111111111111111111111111111000000000001111
1111111111111111111111111111111111111100000000001111111111111111111111
1111111111111111111000000000001111111111111111111111111111111111111111
1100000000001111111111111111111111111111111111111111110000000000111111
1111111111111111111111111111111111110000000000111111111111111111111111
1111111111111111100000000000111111111111111111111111111111111111111111
0000000000111111111111111111111111111111111111111110000000000011111111
1111111111111111111111111111111111000000000011111111111111111111111111
1111111111111110000000000000000000000000000000000000000000000000000000
0000000000000000000000000000000000000000000000000000000000000000000000
0000000000000000000000000000000000000000000000000000000000000000000000
0000000000000000000000000000000000000000000000000000000000000000000000