P1
# Created by GIMP version 2.10.38 PNM plug-in
52 70
0000000000000000000000000000000000000000000000000000000000000000000000
0000000000000000000000000000000000000000000000000000000000000100000000
0000000000000000000000000000000000001111111111111100000000000000000000
0000000000000001111111111111111111100000000000000000000000000000011111
1111111111111111111000000000000000000000000001111111111111111111111111
1100000000000000000000000001111111111111111111111111111100000000000000
0000000111111111111111111111111111111110000000000000000000111111111111
1111111111111111111111000000000000000000111111111111111111111111111111
1111000000000000000001111111111111111111111111111111111110000000000000
0011111111111111111111111111111111111110000000000000001111111111111111
1111111111111111111111000000000000001111111111111111111111111111111111
1111000000000000011111111111111111111111111111111111111100000000000001
1111111111111111100111111111111111111110000000000001111111111111111100
0000111111111111111110000000000001111111111111111000000011111111111111
1110000000000011111111111111110000000001111111111111111000000000001111
1111111111110000000001111111111111111000000000001111111111111111000000
0001111111111111111000000000000001000100010000000000000111111111111111
0000000000000000000000000000000000000111111111111111000000000000000000
0000000000000000000111111111111111000000000000000000000000000000000000
1111111111111111000000000000000000000000000000000011111111111111111000
0000000000000000000000000110111111111111111111111000000000000000000000
0000000111111111111111111111110000000000000000000000000000011111111111
1111111111110000000000000000000000000000011111111111111111111100000000
0000000000000000000000011111111111111111111100000000000000000000000000
0000011111111111111111110000000000000000000000000000000001111111111111
1111000000000000000000000000000000000001111111111111111111000000000000
0000000000000000000001111111111111111111100000000000000000000000000000
0001111111111111111111111000000000000000000000000000000111111111111111
1111111100000000000000000000000000000111111111111111111111111000000000
0000000000000000000111111111111111111111111100000000000000000000000000
0101101111111111111111111100000000000000000000000000000000000111111111
1111111110000000000000000000000000000000000001111111111111111000000000
0000000000000000000000000000111111111111111000000000000000000000000000
0000000000111111111111111100000000001010101010101010000000000011111111
1111111100000000001111111111111110000000000011111111111111110000000000
1111111111111110000000000001111111111111110000000000111111111111111100
0000000011111111111111110000000000111111111111111100000000001111111111
1111110000000000111111111111111100000000011111111111111111000000000011
1111111111111111000000011111111111111111000000000001111111111111111111
0101111111111111111110000000000001111111111111111111111111111111111111
1110000000000001111111111111111111111111111111111111111000000000000011
1111111111111111111111111111111111111000000000000011111111111111111111
1111111111111111110000000000000001111111111111111111111111111111111111
0000000000000001111111111111111111111111111111111110000000000000000011
1111111111111111111111111111111100000000000000000001111111111111111111
1111111111111000000000000000000000111111111111111111111111111111000000
0000000000000000001111111111111111111111111110000000000000000000000000
0111111111111111111111111000000000000000000000000000000011111111111111
1111100000000000000000000000000000000000001111111111110000000000000000
0000000000000000000000000000000000000000000000000000000000000000000000
0000000000000000000000000000000000000000000000000000000000000000000000
0000000000000000000000000000000000000000000000000000000000000000000000