P1
# Created by GIMP version 2.10.38 PNM plug-in
52 70
0000000000000000000000000000000000000000000000000000000000000000000000
0000000000000000000000000000000000000000000000000000000000000000000000
0000000000000000000000000000000000000000000000000000000000000000000000
0000000000000000000000000000000000000000000000000000000000000000000000
0000000000000000000000000000000000000000000000000000000000011111111111
1111111000000000000000000000000000000000111111111111111111100000000000
0000000000000000000001111111111111111111100000000000000000000000000000
0001111111111111111111100000000000000000000000000000001111111111111111
1111100000000000000000000000000000011111111111111111111110000000000000
0000000000000000011111111111111111111110000000000000000000000000000011
1111111111111111111110000000000000000000000000000111111111111111111111
1100000000000000000000000000000111111111111111111111111000000000000000
0000000000001111111111111111111111111000000000000000000000000001111111
1111111111111111111000000000000000000000000001111111111111111111111111
1000000000000000000000000011111111111111111111111111100000000000000000
0000000111111111111111111111111111100000000000000000000000011111111111
1111111111111111100000000000000000000000111111111111111111111111111100
0000000000000000000001111111111111111111111111111110000000000000000000
0001111111111111111111111111111110000000000000000000001111111111111110
1111111111111110000000000000000000011111111111111100111111111111111000
0000000000000000111111111111111100111111111111111000000000000000000011
1111111111111000111111111111111000000000000000000111111111111111100011
1111111111111000000000000000001111111111111111000011111111111111000000
0000000000001111111111111110000011111111111111100000000000000001111111
1111111110000011111111111111100000000000000011111111111111110000001111
1111111111100000000000000011111111111111100000001111111111111110000000
0000000111111111111111100000001111111111111110000000000000111111111111
1111000000001111111111111110000000000000111111111111111000000000111111
1111111110000000000001111111111111111000000000111111111111110000000000
0011111111111111110000000000111111111111111000000000001111111111111110
0000000000111111111111111000000000011111111111111110000000000011111111
1111111000000000111111111111111111111111111111111111111111111111100011
1111111111111111111111111111111111111111111111100011111111111111111111
1111111111111111111111111111100011111111111111111111111111111111111111
1111111111100011111111111111111111111111111111111111111111111110001111
1111111111111111111111111111111111111111111110001111111111111111111111
1111111111111111111111111110001111111111111111111111111111111111111111
1111111110001111111111111111111111111111111111111111111111111000111111
1111111111111111111111111111111111111111111000111111111111111111111111
1111111111111111111111111000111111111111111111111111111111111111111111
1111111000111111111111111111111111111111111111111111111111100011111111
1111111111111111111111111111111111111111100001010101010101010101010100
1111111111111111101010100000000000000000000000000000011111111111111110
0000000000000000000000000000000000111111111111111110000000000000000000
0000000000000000011111111111111110000000000000000000000000000000000001
1111111111111110000000000000000000000000000000000001111111111111111000
0000000000000000000000000000000011111111111111110000000000000000000000
0000000000000001111111111111111000000000000000000000000000000000001111
1111111111111000000000000000000000000000000000000111111111111111100000
0000000000000000000000000000000101010101010101000000000000000000000000
0000000000000000000000000000000000000000000000000000000000000000000000
0000000000000000000000000000000000000000000000000000000000000000000000