P1
# Created by GIMP version 2.10.38 PNM plug-in
52 70
0000000000000000000000000000000000000000000000000000000000000000000000
0000000000000000000000000000000000000000000000000000000000000000000000
0000000000000000000000000000000000000000000000000000000000000000000000
0000000000000000000000000000000000000000000000000000000011111111111111
1111111111111111111111111000000000000011111111111111111111111111111111
1111111000000000000011111111111111111111111111111111111111100000000000
0011111111111111111111111111111111111111100000000000001111111111111111
1111111111111111111111100000000000001111111111111111111111111111111111
1111100000000000001111111111111111111111111111111111111110000000000000
1111111111111111111111111111111111111110000000000000111111111111111111
1111111111111111111110000000000000111111111111111111111111111111111111
1110000000000000111111111111111111111111111111111111111000000000000011
1111111111111111111111111111111111111000000000000011111111111111111111
1111111111111111111000000000000011111111111111111111111111111111111111
1000000000000011111111111111101000010000100001000000000000000000001111
1111111111000000000000000000000000000000000000001111111111111100000000
0000000000000000000000000000001111111111111100000000000000000000000000
0000000000001111111111111100000000000000000000000000000000000000111111
1111111100000000000000000000000000000000000000111111111111110000000111
1111100000000000000000000000111111111111110001111111111111110000000000
0000000000111111111111110011111111111111111100000000000000000011111111
1111111111111111111111111110000000000000000011111111111111111111111111
1111111111100000000000000011111111111111111111111111111111111110000000
0000000011111111111111111111111111111111111111000000000000001111111111
1111111111111111111111111111100000000000001111111111111111111111111111
1111111111100000000000001111111111111111111111111111111111111111000000
0000001111111111111111111111111111111111111111000000000000111111111111
1111111111111111111111111111100000000000111111111111111111111111111111
1111111111100000000000111111111111111111000001111111111111111110000000
0000111111111111111110000000011111111111111111000000000011111111111111
1100000000001111111111111111000000000011111111111111100000000000111111
1111111111000000000000000000000000000000000000111111111111111100000000
0000000000000000000000000000011111111111111100000000000000000000000000
0000000000011111111111111100000000000000000000000000000000000001111111
1111111100000000000000000000000000000000000011111111111111110000000000
1010101010101010000000000011111111111111110000000001111111111111111000
0000000011111111111111110000000000111111111111111100000000001111111111
1111110000000000111111111111111100000000011111111111111111000000000011
1111111111111111000000111111111111111110000000000011111111111111111111
1111111111111111111110000000000011111111111111111111111111111111111111
1110000000000001111111111111111111111111111111111111111000000000000111
1111111111111111111111111111111111110000000000000011111111111111111111
1111111111111111110000000000000011111111111111111111111111111111111110
0000000000000001111111111111111111111111111111111100000000000000000011
1111111111111111111111111111111100000000000000000001111111111111111111
1111111111111000000000000000000000111111111111111111111111111111000000
0000000000000000011111111111111111111111111110000000000000000000000000
0111111111111111111111111000000000000000000000000000000111111111111111
1111100000000000000000000000000000000000111111111111110000000000000000
0000000000000000000000000000100000000000000000000000000000000000000000
0000000000000000000000000000000000000000000000000000000000000000000000
0000000000000000000000000000000000000000000000000000000000000000000000